<svg xmlns="http://www.w3.org/2000/svg" xmlns:xlink="http://www.w3.org/1999/xlink" version="1.1" id="Icon" x="0px" y="0px" viewBox="0 0 250 250" xml:space="preserve" style="fill: #fff">
<g>
	<path d="M125,62.5c-34.5,0-62.5,28-62.5,62.5c0,34.5,28,62.5,62.5,62.5c34.5,0,62.5-28,62.5-62.5C187.5,90.5,159.5,62.5,125,62.5z    M127.6,90.7c0-0.3,0.2-0.5,0.5-0.5h15.9c0.3,0,0.5,0.2,0.5,0.5v7.7c0,0.3-0.2,0.5-0.5,0.5h-15.9c-0.3,0-0.5-0.2-0.5-0.5V90.7z    M105.4,90.7c0-0.3,0.2-0.5,0.5-0.5h15.9c0.3,0,0.5,0.2,0.5,0.5v7.7c0,0.3-0.2,0.5-0.5,0.5h-15.9c-0.3,0-0.5-0.2-0.5-0.5V90.7z    M82.6,94.8c0-2.6,1.9-4.6,4.2-4.6h12.7c0.3,0,0.5,0.2,0.5,0.5v7.7c0,0.3-0.2,0.5-0.5,0.5H83.1c-0.3,0-0.5-0.2-0.5-0.5V94.8z    M100.1,159.3c0,0.3-0.2,0.5-0.5,0.5H86.8c-2.3,0-4.2-2.1-4.2-4.6v-3.5c0-0.3,0.2-0.5,0.5-0.5h16.5c0.3,0,0.5,0.2,0.5,0.5V159.3z    M122.4,159.3c0,0.3-0.2,0.5-0.5,0.5h-15.9c-0.3,0-0.5-0.2-0.5-0.5v-7.7c0-0.3,0.2-0.5,0.5-0.5h15.9c0.3,0,0.5,0.2,0.5,0.5V159.3z    M144.6,159.3c0,0.3-0.2,0.5-0.5,0.5h-15.9c-0.3,0-0.5-0.2-0.5-0.5v-7.7c0-0.3,0.2-0.5,0.5-0.5h15.9c0.3,0,0.5,0.2,0.5,0.5V159.3z    M167.4,155.2c0,2.6-1.9,4.6-4.2,4.6h-12.7c-0.3,0-0.5-0.2-0.5-0.5v-7.7c0-0.3,0.2-0.5,0.5-0.5h16.5c0.3,0,0.5,0.2,0.5,0.5V155.2z    M167.4,144.5c0,0.4-0.3,0.8-0.8,0.8H83.4c-0.4,0-0.8-0.3-0.8-0.8v-39.1c0-0.4,0.3-0.8,0.8-0.8h83.2c0.4,0,0.8,0.3,0.8,0.8V144.5z    M167.4,98.4c0,0.3-0.2,0.5-0.5,0.5h-16.5c-0.3,0-0.5-0.2-0.5-0.5v-7.7c0-0.3,0.2-0.5,0.5-0.5h12.7c2.3,0,4.2,2.1,4.2,4.6V98.4z" class=""/>
	<polygon points="114.5,138.1 140.8,125 114.5,111.9  " class=""/>
</g>
</svg>
